Coordinates
version=1
nRows=13
nColumns=38
inDegrees=no

Units are S.I. units (second, meters, Newtons, ...)
If the header above contains a line with 'inDegrees', this indicates whether rotational values are in degrees (yes) or radians (no).

endheader
time	pelvis_tilt	pelvis_list	pelvis_rotation	pelvis_tx	pelvis_ty	pelvis_tz	hip_flexion_r	hip_adduction_r	hip_rotation_r	knee_angle_r	ankle_angle_r	subtalar_angle_r	mtp_angle_r	hip_flexion_l	hip_adduction_l	hip_rotation_l	knee_angle_l	ankle_angle_l	subtalar_angle_l	mtp_angle_l	lumbar_extension	lumbar_bending	lumbar_rotation	arm_flex_r	arm_add_r	arm_rot_r	elbow_flex_r	pro_sup_r	wrist_flex_r	wrist_dev_r	arm_flex_l	arm_add_l	arm_rot_l	elbow_flex_l	pro_sup_l	wrist_flex_l	wrist_dev_l
55	-0.137914	1.2542	1.79174	0.683605	0.142669	0.933923	0.776165	-0.504534	-0.622623	0.979421	0.202918	0	0	0.727495	-0.253218	-0.650629	0.894767	0.240413	0	0	-0.526782	-0.0119557	-0.0109268	0.705507	-0.433747	-0.068493	1.24228	0.924442	0	0	0.743406	-0.404986	0.0945071	1.21755	1.02026	0	0
55.01	-0.0296823	1.18457	1.65497	0.691414	0.135956	0.919374	0.894602	-0.443088	-0.574315	1.00606	0.203109	0	0	0.843344	-0.324379	-0.637361	0.955711	0.239758	0	0	-0.440476	-0.00890432	0.0320943	0.692368	-0.429336	-0.0698384	1.24427	0.92922	0	0	0.736305	-0.413317	0.101638	1.2189	1.01871	0	0
55.02	-0.0787689	1.13528	1.72378	0.686578	0.131162	0.908606	0.976899	-0.499254	-0.552487	1.04793	0.200352	0	0	0.915079	-0.279668	-0.61746	0.974914	0.237632	0	0	-0.387026	-0.0240312	0.000487395	0.68676	-0.428767	-0.067587	1.24442	0.929128	0	0	0.733924	-0.416558	0.105713	1.21663	1.01829	0	0
55.03	-0.0741534	1.13099	1.71745	0.687287	0.129898	0.904066	0.993611	-0.504949	-0.551664	1.06905	0.203259	0	0	0.931967	-0.291839	-0.61708	0.999267	0.241305	0	0	-0.393297	-0.0242284	0.00221441	0.701412	-0.426652	-0.0641779	1.23953	0.928104	0	0	0.748436	-0.41757	0.107702	1.2105	1.018	0	0
55.04	-0.0689039	1.12611	1.71026	0.688037	0.128523	0.899316	1.01148	-0.509773	-0.549824	1.09007	0.206423	0	0	0.94979	-0.30397	-0.61516	1.02323	0.245377	0	0	-0.398892	-0.0242806	0.00404788	0.716249	-0.424215	-0.0613532	1.23434	0.930601	0	0	0.762563	-0.419012	0.109559	1.20526	1.01778	0	0
55.05	-0.0631042	1.12149	1.70347	0.688693	0.127104	0.894504	1.02869	-0.514922	-0.548485	1.1107	0.209574	0	0	0.967668	-0.314589	-0.610318	1.04604	0.250305	0	0	-0.404842	-0.023637	0.00496191	0.731608	-0.42143	-0.0583296	1.22766	0.933722	0	0	0.77669	-0.420594	0.11119	1.20022	1.0179	0	0
55.06	-0.057722	1.11723	1.69839	0.689212	0.12566	0.889699	1.04506	-0.521221	-0.547806	1.13101	0.21266	0	0	0.985534	-0.322865	-0.602922	1.06758	0.255541	0	0	-0.411455	-0.0227763	0.00474355	0.747486	-0.418425	-0.0548566	1.21871	0.937143	0	0	0.791759	-0.422016	0.113312	1.19449	1.01795	0	0
55.07	-0.0532786	1.11322	1.69593	0.689604	0.124188	0.884945	1.06061	-0.529441	-0.548127	1.15119	0.215719	0	0	1.00353	-0.328392	-0.59371	1.08794	0.260224	0	0	-0.41871	-0.0219917	0.00350953	0.763274	-0.415511	-0.0518062	1.20891	0.937849	0	0	0.808748	-0.423088	0.117318	1.18751	1.01665	0	0
55.08	-0.0505804	1.11055	1.69716	0.689911	0.122855	0.8803	1.07333	-0.542559	-0.553816	1.17276	0.218816	0	0	1.02006	-0.331579	-0.584244	1.10783	0.264645	0	0	-0.427725	-0.0215551	0.00130738	0.777844	-0.412892	-0.0514227	1.20141	0.936247	0	0	0.827925	-0.423956	0.123777	1.17949	1.01535	0	0
55.09	-0.0489217	1.10758	1.69948	0.690285	0.121456	0.87567	1.08644	-0.555381	-0.558414	1.19354	0.22213	0	0	1.03666	-0.334311	-0.575698	1.12734	0.268423	0	0	-0.436802	-0.0218584	-0.000172819	0.791182	-0.410892	-0.0531478	1.19636	0.937641	0	0	0.848548	-0.42473	0.132085	1.17075	1.0155	0	0
55.1	-0.0471923	1.10414	1.70224	0.69062	0.120001	0.870993	1.09966	-0.56804	-0.562733	1.21315	0.225794	0	0	1.05369	-0.336774	-0.568065	1.14652	0.271391	0	0	-0.44554	-0.021952	-0.00153509	0.803562	-0.409507	-0.0558237	1.19339	0.93961	0	0	0.86957	-0.42537	0.14124	1.16201	1.01515	0	0
55.11	-0.0444798	1.10055	1.70444	0.690934	0.118542	0.866243	1.11168	-0.581282	-0.569557	1.23173	0.229853	0	0	1.07095	-0.339951	-0.56156	1.16592	0.273527	0	0	-0.454161	-0.0212475	-0.00295089	0.815461	-0.408271	-0.0593346	1.19187	0.940134	0	0	0.890235	-0.425942	0.150285	1.15347	1.01408	0	0
55.12	-0.0408217	1.09544	1.70479	0.691388	0.116921	0.861255	1.12784	-0.589409	-0.568401	1.24915	0.233951	0	0	1.09024	-0.344896	-0.555811	1.18598	0.274528	0	0	-0.460941	-0.0206558	-0.0036227	0.82662	-0.406767	-0.0630877	1.19095	0.939536	0	0	0.910258	-0.427069	0.159296	1.14597	1.01227	0	0
